<svg width="834" height="1112" viewBox="0 0 834 1112" xmlns="http://www.w3.org/2000/svg">
  <defs>
    <!-- 背景渐变 -->
    <radialGradient id="bgGrad" cx="50%" cy="50%" r="70%" fx="50%" fy="50%">
      <stop offset="0%" stop-color="#1A0B2E" />
      <stop offset="60%" stop-color="#0A0B1A" />
      <stop offset="100%" stop-color="#05050A" />
    </radialGradient>

    <!-- 星云渐变 -->
    <linearGradient id="nebulaGrad" x1="0%" y1="0%" x2="100%" y2="100%">
      <stop offset="0%" stop-color="#FF0055" stop-opacity="0.1" />
      <stop offset="50%" stop-color="#00FFFF" stop-opacity="0.05" />
      <stop offset="100%" stop-color="#FFD700" stop-opacity="0.1" />
    </linearGradient>

    <!-- 核心发光渐变 -->
    <radialGradient id="coreGrad" cx="50%" cy="50%" r="50%">
      <stop offset="0%" stop-color="#FFFFFF" />
      <stop offset="20%" stop-color="#00FFFF" />
      <stop offset="70%" stop-color="#00BFFF" />
      <stop offset="100%" stop-color="#0055FF" stop-opacity="0" />
    </radialGradient>

    <!-- 边框渐变 -->
    <linearGradient id="borderGrad" x1="0%" y1="0%" x2="100%" y2="100%">
      <stop offset="0%" stop-color="#00FFFF" />
      <stop offset="50%" stop-color="#0055FF" />
      <stop offset="100%" stop-color="#00FFFF" />
    </linearGradient>

    <!-- 标题渐变 -->
    <linearGradient id="titleGrad" x1="0%" y1="0%" x2="100%" y2="0%">
      <stop offset="0%" stop-color="#FFFFFF" />
      <stop offset="50%" stop-color="#00FFFF" />
      <stop offset="100%" stop-color="#FFFFFF" />
    </linearGradient>

    <!-- 发光滤镜 -->
    <filter id="glow" x="-50%" y="-50%" width="200%" height="200%">
      <feGaussianBlur stdDeviation="8" result="blur" />
      <feMerge>
        <feMergeNode in="blur" />
        <feMergeNode in="blur" />
        <feMergeNode in="SourceGraphic" />
      </feMerge>
    </filter>

    <filter id="neonGlow" x="-50%" y="-50%" width="200%" height="200%">
      <feGaussianBlur stdDeviation="4" result="blur" />
      <feMerge>
        <feMergeNode in="blur" />
        <feMergeNode in="SourceGraphic" />
      </feMerge>
    </filter>

    <filter id="adGlitch" x="-20%" y="-20%" width="140%" height="140%">
      <feGaussianBlur stdDeviation="2" result="blur" />
      <feColorMatrix type="matrix" values="1 0 0 0 0  0 0 0 0 0  0 0 1 0 0  0 0 0 1 0" />
    </filter>

    <!-- 网格图案 -->
    <pattern id="grid" width="40" height="40" patternUnits="userSpaceOnUse">
      <path d="M 40 0 L 0 0 0 40" fill="none" stroke="#00FFFF" stroke-width="0.5" opacity="0.05" />
    </pattern>

    <!-- 点状图案 -->
    <pattern id="dots" width="20" height="20" patternUnits="userSpaceOnUse">
      <circle cx="10" cy="10" r="1" fill="#00FFFF" opacity="0.1" />
    </pattern>
  </defs>

  <!-- 背景层 -->
  <rect width="834" height="1112" fill="url(#bgGrad)" />
  <rect width="834" height="1112" fill="url(#nebulaGrad)" />
  <rect width="834" height="1112" fill="url(#grid)" />
  <rect width="834" height="1112" fill="url(#dots)" />

  <!-- 外边框 -->
  <rect x="20" y="20" width="794" height="1072" rx="20" fill="none" stroke="url(#borderGrad)" stroke-width="4" filter="url(#glow)" />
  <rect x="35" y="35" width="764" height="1042" rx="12" fill="none" stroke="#00FFFF" stroke-width="1" opacity="0.5" />
  
  <!-- 角落装饰 -->
  <path d="M 40 40 L 80 40 L 40 80 Z" fill="#00FFFF" opacity="0.6" />
  <path d="M 794 40 L 754 40 L 794 80 Z" fill="#00FFFF" opacity="0.6" />
  <path d="M 40 1072 L 80 1072 L 40 1032 Z" fill="#00FFFF" opacity="0.6" />
  <path d="M 794 1072 L 754 1072 L 794 1032 Z" fill="#00FFFF" opacity="0.6" />

  <!-- 顶部标题区 -->
  <text x="417" y="130" text-anchor="middle" font-family="'Segoe UI', Arial, sans-serif" font-size="72" font-weight="900" fill="url(#titleGrad)" filter="url(#glow)" letter-spacing="8">万象星核</text>
  <text x="417" y="180" text-anchor="middle" font-family="'Segoe UI', Arial, sans-serif" font-size="28" font-weight="bold" fill="#00FFFF" opacity="0.8" letter-spacing="15">NOVA BAY</text>
  
  <line x1="150" y1="210" x2="684" y2="210" stroke="#00FFFF" stroke-width="1" opacity="0.3" />
  <line x1="250" y1="220" x2="584" y2="220" stroke="#00FFFF" stroke-width="0.5" opacity="0.2" />

  <!-- 核心视觉区 -->
  <g transform="translate(417, 520)">
    <!-- 外围雷达环 -->
    <circle cx="0" cy="0" r="220" fill="none" stroke="#00BFFF" stroke-width="1" opacity="0.2" />
    <circle cx="0" cy="0" r="200" fill="none" stroke="#00BFFF" stroke-width="1" opacity="0.3" stroke-dasharray="10 20" />
    <circle cx="0" cy="0" r="160" fill="none" stroke="#00FFFF" stroke-width="1.5" opacity="0.4" stroke-dasharray="40 15" />

    <!-- 过滤能量场（放射线） -->
    <g opacity="0.4">
      <line x1="0" y1="0" x2="-180" y2="-150" stroke="#00FFFF" stroke-width="2" filter="url(#neonGlow)" />
      <line x1="0" y1="0" x2="180" y2="-150" stroke="#00FFFF" stroke-width="2" filter="url(#neonGlow)" />
      <line x1="0" y1="0" x2="-200" y2="100" stroke="#00FFFF" stroke-width="2" filter="url(#neonGlow)" />
      <line x1="0" y1="0" x2="200" y2="100" stroke="#00FFFF" stroke-width="2" filter="url(#neonGlow)" />
      <line x1="0" y1="0" x2="0" y2="-220" stroke="#00FFFF" stroke-width="2" filter="url(#neonGlow)" />
      <line x1="0" y1="0" x2="0" y2="220" stroke="#00FFFF" stroke-width="2" filter="url(#neonGlow)" />
    </g>

    <!-- 被过滤的AD碎片（混乱元素） -->
    <g opacity="0.7">
      <!-- 左侧AD碎片 -->
      <rect x="-250" y="-100" width="50" height="50" rx="4" fill="#FF0055" transform="rotate(25 -225 -75)" filter="url(#adGlitch)" />
      <text x="-235" y="-65" font-family="Arial" font-size="12" font-weight="bold" fill="#FFFFFF" transform="rotate(25 -225 -75)">AD</text>
      
      <rect x="-180" y="-200" width="40" height="40" rx="2" fill="#FFD700" transform="rotate(-15 -160 -180)" filter="url(#adGlitch)" />
      <text x="-168" y="-175" font-family="Arial" font-size="10" font-weight="bold" fill="#000000" transform="rotate(-15 -160 -180)">AD</text>

      <rect x="-220" y="150" width="60" height="30" rx="4" fill="#FF00AA" transform="rotate(10 -190 165)" opacity="0.8" />
      <text x="-200" y="170" font-family="Arial" font-size="12" font-weight="bold" fill="#FFFFFF" transform="rotate(10 -190 165)">AD</text>

      <!-- 右侧AD碎片 -->
      <rect x="180" y="-180" width="45" height="45" rx="3" fill="#00FF00" transform="rotate(35 202 -157)" filter="url(#adGlitch)" />
      <text x="192" y="-155" font-family="Arial" font-size="10" font-weight="bold" fill="#000000" transform="rotate(35 202 -157)">SPAM</text>

      <rect x="220" y="80" width="55" height="35" rx="4" fill="#FF5500" transform="rotate(-20 247 97)" opacity="0.8" />
      <text x="230" y="102" font-family="Arial" font-size="12" font-weight="bold" fill="#FFFFFF" transform="rotate(-20 247 97)">AD</text>

      <rect x="150" y="180" width="40" height="40" rx="2" fill="#FF0055" transform="rotate(45 170 200)" filter="url(#adGlitch)" />
    </g>

    <!-- 核心能量球 -->
    <circle cx="0" cy="0" r="90" fill="url(#coreGrad)" filter="url(#glow)" />
    
    <!-- 核心几何结构（万象星核） -->
    <g fill="none" stroke="#FFFFFF" stroke-width="3" filter="url(#glow)">
      <!-- 中心六边形 -->
      <polygon points="0,-60 52,-30 52,30 0,60 -52,30 -52,-30" />
      <!-- 交叉星形 -->
      <polygon points="0,-80 20,-20 80,0 20,20 0,80 -20,20 -80,0 -20,-20" fill="#00FFFF" opacity="0.3" />
      <!-- 内部三角形 -->
      <polygon points="0,-40 35,20 -35,20" fill="#FFFFFF" opacity="0.5" />
      <polygon points="0,40 35,-20 -35,-20" fill="#FFFFFF" opacity="0.5" />
    </g>

    <!-- 核心光晕 -->
    <circle cx="0" cy="0" r="120" fill="none" stroke="#00FFFF" stroke-width="2" opacity="0.6" filter="url(#glow)" />
    <circle cx="0" cy="0" r="140" fill="none" stroke="#00BFFF" stroke-width="1" opacity="0.4" stroke-dasharray="5 15" />
  </g>

  <!-- 底部信息面板 -->
  <rect x="60" y="790" width="714" height="200" rx="15" fill="#0A0B1A" opacity="0.85" stroke="#00FFFF" stroke-width="2" filter="url(#glow)" />
  <rect x="70" y="800" width="694" height="180" rx="10" fill="none" stroke="#0055FF" stroke-width="1" opacity="0.5" />

  <!-- 卡牌类型标签 -->
  <rect x="60" y="765" width="150" height="40" rx="8" fill="#1A0B2E" stroke="#00FFFF" stroke-width="2" />
  <text x="135" y="791" text-anchor="middle" font-family="'Segoe UI', Arial, sans-serif" font-size="18" font-weight="bold" fill="#00FFFF" letter-spacing="2">持续效果</text>

  <rect x="624" y="765" width="150" height="40" rx="8" fill="#1A0B2E" stroke="#00FFFF" stroke-width="2" />
  <text x="699" y="791" text-anchor="middle" font-family="'Segoe UI', Arial, sans-serif" font-size="18" font-weight="bold" fill="#00FFFF" letter-spacing="2">消耗：2</text>

  <!-- 效果标题 -->
  <text x="417" y="880" text-anchor="middle" font-family="'Segoe UI', Arial, sans-serif" font-size="42" font-weight="bold" fill="#FFFFFF" filter="url(#neonGlow)" letter-spacing="4">内容广告过滤</text>
  
  <line x1="120" y1="910" x2="714" y2="910" stroke="#00FFFF" stroke-width="2" opacity="0.5" />

  <!-- 底部装饰 -->
  <path d="M 417 960 L 447 990 L 417 1020 L 387 990 Z" fill="#00FFFF" opacity="0.6" filter="url(#neonGlow)" />
  <path d="M 417 970 L 437 990 L 417 1010 L 397 990 Z" fill="#FFFFFF" opacity="0.8" />

  <!-- 小型全息装饰点 -->
  <circle cx="100" cy="990" r="3" fill="#00FFFF" opacity="0.8" />
  <circle cx="120" cy="990" r="2" fill="#00FFFF" opacity="0.5" />
  <circle cx="140" cy="990" r="1" fill="#00FFFF" opacity="0.3" />
  
  <circle cx="734" cy="990" r="3" fill="#00FFFF" opacity="0.8" />
  <circle cx="714" cy="990" r="2" fill="#00FFFF" opacity="0.5" />
  <circle cx="694" cy="990" r="1" fill="#00FFFF" opacity="0.3" />
</svg>